OpenSim_Sub02_CSBaseline_GRF.mot
version=1
nRows=51
nColumns=19
inDegrees=no
endheader
time	lFx	lFy	lFz	lCOPx	lCOPy	lCOPz	rFx	rFy	rFz	rCOPx	rCOPy	rCOPz	lMx	lMy	lMz	rMx	rMy	rMz
0	-2.51655733	280.21696536	26.43997216	0.64723307	0	-0.66734757	-1.12843729	268.32872226	-28.88108863	0.67712886	0	-0.36756334	0	-1.82895610	0	0	0.05483586	0.00000000
0.01000000	-2.73341062	280.02318414	26.33752989	0.64760405	0	-0.66718595	-1.58749912	268.90856336	-28.99700086	0.67749421	0	-0.36749445	0	-1.79659655	0	0	-0.00112752	-0.00000000
0.02000000	-2.89480779	279.64221761	26.23031282	0.64801418	0	-0.66703750	-1.95235965	269.49047585	-29.21261934	0.67798118	0	-0.36734946	0	-1.77362163	0	0	-0.04132593	0.00000000
0.03000000	-2.99386048	279.11464255	26.12429471	0.64841380	0	-0.66691396	-2.21229228	269.95170579	-29.47097808	0.67847847	0	-0.36715674	0	-1.76163472	0	0	-0.04557892	0.00000000
0.04000000	-3.06853701	278.52355351	26.04745779	0.64873142	0	-0.66677993	-2.40389481	270.28957456	-29.72322504	0.67893599	0	-0.36695775	0	-1.75756027	0	0	-0.01623314	-0.00000000
0.05000000	-3.16761615	277.94410275	26.02631493	0.64885807	0	-0.66662002	-2.55733678	270.57151945	-29.94637409	0.67932523	0	-0.36681693	0	-1.75687566	0	0	0.02170328	0.00000000
0.06000000	-3.29668036	277.45510209	26.05511752	0.64902647	0	-0.66647222	-2.68558373	270.95448642	-30.12208201	0.67968237	0	-0.36674635	0	-1.75702003	0	0	0.03838668	0
0.07000000	-3.43909426	276.99446569	26.07960287	0.64941089	0	-0.66640227	-2.80019952	271.53472734	-30.23391434	0.68001352	0	-0.36670852	0	-1.76058866	0	0	0.04505899	0.00000000
0.08000000	-3.57022741	276.42166930	26.06310823	0.64989704	0	-0.66639987	-2.88130755	272.24203325	-30.28478068	0.68028090	0	-0.36666254	0	-1.75788355	0	0	0.05707607	-0.00000000
0.09000000	-3.64971235	275.67474607	26.00330238	0.65041643	0	-0.66640248	-2.90983276	273.00758228	-30.29326877	0.68046789	0	-0.36660002	0	-1.74760461	0	0	0.07523166	0.00000000
0.10000000	-3.67225167	274.84674288	25.93957433	0.65098523	0	-0.66638075	-2.86763014	273.89615188	-30.26978184	0.68069390	0	-0.36647716	0	-1.72413323	0	0	0.09423141	-0.00000000
0.11000000	-3.66218928	274.10327741	25.92023053	0.65151056	0	-0.66633008	-2.75776558	274.93056788	-30.24906270	0.68103231	0	-0.36630932	0	-1.67624414	0	0	0.10354071	-0.00000000
0.12000000	-3.66480644	273.54462015	25.97035662	0.65196770	0	-0.66625635	-2.64135584	276.02392320	-30.27081317	0.68129107	0	-0.36616357	0	-1.60894903	0	0	0.11252370	-0.00000000
0.13000000	-3.74330024	273.27788822	26.05261028	0.65246211	0	-0.66620535	-2.56258610	277.16554887	-30.35922846	0.68132674	0	-0.36606393	0	-1.52334760	0	0	0.12488040	0
0.14000000	-3.93043406	273.30598565	26.10301599	0.65309840	0	-0.66621877	-2.55959923	278.29070471	-30.49199297	0.68129871	0	-0.36601401	0	-1.43250929	0	0	0.14307524	-0.00000000
0.15000000	-4.22062996	273.44084747	26.04445383	0.65389660	0	-0.66629449	-2.69574832	279.31049886	-30.59522643	0.68154276	0	-0.36600036	0	-1.39019696	0	0	0.15337554	0
0.16000000	-4.47977023	273.42929368	25.81893072	0.65448429	0	-0.66642038	-3.03152124	280.15646182	-30.60110571	0.68227008	0	-0.36598905	0	-1.46808224	0	0	0.13306723	-0.00000000
0.17000000	-4.51444993	273.15269792	25.54006763	0.65451099	0	-0.66651494	-3.43868948	280.66345401	-30.50243356	0.68321277	0	-0.36597805	0	-1.69725143	0	0	0.08050890	-0.00000000
0.18000000	-4.29459706	272.61739859	25.27932247	0.65430775	0	-0.66656401	-3.65454086	280.73512735	-30.37818849	0.68361607	0	-0.36594280	0	-2.00031686	0	0	0.05306342	-0.00000000
0.19000000	-4.00812348	271.82431249	25.01822629	0.65421337	0	-0.66658275	-3.49975297	280.54141727	-30.39438228	0.68320880	0	-0.36585070	0	-2.29284879	0	0	0.06387997	0.00000000
0.20000000	-3.81475839	270.80702283	24.74347876	0.65435232	0	-0.66656400	-3.05727348	280.33156829	-30.61384322	0.68240325	0	-0.36574410	0	-2.55804389	0	0	0.08990044	0.00000000
0.21000000	-3.74876547	269.72050768	24.47281608	0.65471374	0	-0.66653768	-2.57850881	280.18178552	-30.93468336	0.68166099	0	-0.36564132	0	-2.78252866	0	0	0.10941049	0.00000000
0.22000000	-3.76252642	268.70560152	24.22060284	0.65513064	0	-0.66652178	-2.31216130	280.05018832	-31.22109661	0.68120843	0	-0.36549433	0	-2.96452651	0	0	0.10986636	-0.00000000
0.23000000	-3.78560600	267.84506802	23.98883174	0.65530483	0	-0.66649668	-2.28909853	279.95643143	-31.38179468	0.68105584	0	-0.36528741	0	-3.11966453	0	0	0.10027635	0.00000000
0.24000000	-3.77201600	267.14304234	23.78782304	0.65528596	0	-0.66646651	-2.39522388	279.92263044	-31.41164878	0.68116702	0	-0.36507368	0	-3.27208642	0	0	0.07327342	0.00000000
0.25000000	-3.71471993	266.62276360	23.62145652	0.65524636	0	-0.66647426	-2.52585653	279.93704371	-31.39301013	0.68134203	0	-0.36489546	0	-3.41499486	0	0	0.03619689	-0.00000000
0.26000000	-3.60889454	266.35652760	23.48736439	0.65512920	0	-0.66650173	-2.60481807	280.10893110	-31.36957072	0.68159621	0	-0.36473359	0	-3.54131766	0	0	0.00160902	0.00000000
0.27000000	-3.44036733	266.54160459	23.40458928	0.65505512	0	-0.66651556	-2.57223502	280.63454074	-31.36587649	0.68199815	0	-0.36454390	0	-3.65381687	0	0	-0.02814318	-0.00000000
0.28000000	-3.22507980	267.30752664	23.38084414	0.65516462	0	-0.66657721	-2.43475503	281.54453346	-31.42963515	0.68240503	0	-0.36434115	0	-3.76495554	0	0	-0.05679667	0.00000000
0.29000000	-3.04897365	268.59356427	23.40952217	0.65548079	0	-0.66671018	-2.28067907	282.62641563	-31.55957933	0.68266463	0	-0.36413261	0	-3.86894749	0	0	-0.08109625	-0.00000000
0.30000000	-2.98438415	270.23987743	23.47839406	0.65604267	0	-0.66689432	-2.18843930	283.63553656	-31.71399855	0.68279813	0	-0.36389741	0	-3.96660737	0	0	-0.09237371	-0.00000000
0.31000000	-3.06207693	271.97860360	23.60592886	0.65684525	0	-0.66704364	-2.18693589	284.58938767	-31.84382600	0.68308640	0	-0.36358519	0	-4.07904967	0	0	-0.09334066	0
0.32000000	-3.22793048	273.53911324	23.76529006	0.65789190	0	-0.66713865	-2.24414228	285.66362561	-31.95210341	0.68370335	0	-0.36317654	0	-4.19507328	0	0	-0.09107206	-0.00000000
0.33000000	-3.41387280	274.72382264	23.88546260	0.65916849	0	-0.66722954	-2.29817959	286.95630168	-32.03650402	0.68453156	0	-0.36273502	0	-4.28973975	0	0	-0.08735488	-0.00000000
0.34000000	-3.61426750	275.38830349	23.92646459	0.66076223	0	-0.66735878	-2.38193013	288.21259978	-32.08181075	0.68547978	0	-0.36231014	0	-4.38010161	0	0	-0.09306056	0
0.35000000	-3.88856058	275.32191446	23.90574166	0.66270567	0	-0.66746300	-2.60996066	288.96240838	-32.10971838	0.68661040	0	-0.36195245	0	-4.48583296	0	0	-0.11193074	-0.00000000
0.36000000	-4.24695630	274.38168398	23.81241637	0.66504155	0	-0.66757561	-3.01325136	288.95693242	-32.15394809	0.68787856	0	-0.36167110	0	-4.61319797	0	0	-0.13695537	0
0.37000000	-4.64558067	272.56653610	23.65778514	0.66769249	0	-0.66771631	-3.48836127	288.36400562	-32.25579269	0.68902085	0	-0.36140199	0	-4.75984748	0	0	-0.15171068	-0.00000000
0.38000000	-5.02470536	270.14733755	23.48050112	0.67039838	0	-0.66786281	-3.90011831	287.75210765	-32.48458246	0.68995275	0	-0.36109266	0	-4.90154578	0	0	-0.16059534	0
0.39000000	-5.37945558	267.58917587	23.32391439	0.67293782	0	-0.66800807	-4.21941568	287.58086875	-32.91498416	0.69077729	0	-0.36070107	0	-5.01175959	0	0	-0.17134891	-0.00000000
0.40000000	-5.72346925	265.25882664	23.23570449	0.67516680	0	-0.66809543	-4.48616225	287.96606244	-33.53422963	0.69165255	0	-0.36019866	0	-5.09471077	0	0	-0.18382362	0.00000000
0.41000000	-6.06468018	263.18495491	23.17728754	0.67720541	0	-0.66808153	-4.79760645	288.67499363	-34.25861893	0.69254703	0	-0.35963181	0	-5.16291625	0	0	-0.19961608	0.00000000
0.42000000	-6.41608738	261.18421524	23.07713564	0.67916579	0	-0.66794938	-5.22102865	289.43009988	-34.94574135	0.69332609	0	-0.35905581	0	-5.22307077	0	0	-0.20613811	0
0.43000000	-6.77873556	259.05990657	22.89820134	0.68103857	0	-0.66769958	-5.75008069	290.14860218	-35.47107114	0.69416708	0	-0.35847096	0	-5.26185137	0	0	-0.20745944	0
0.44000000	-7.15379945	256.79822370	22.63731061	0.68287414	0	-0.66738689	-6.39802128	290.85032798	-35.83489825	0.69522472	0	-0.35791194	0	-5.28939332	0	0	-0.21893274	-0.00000000
0.45000000	-7.54382145	254.53333355	22.33299626	0.68483855	0	-0.66707849	-7.11495198	291.60357394	-36.08413778	0.69644300	0	-0.35743717	0	-5.31837813	0	0	-0.24884604	0
0.46000000	-7.98589338	252.47141109	22.04708926	0.68671522	0	-0.66676104	-7.75360527	292.48763672	-36.25581007	0.69764882	0	-0.35705499	0	-5.33708735	0	0	-0.28048409	0.00000000
0.47000000	-8.42459071	250.67545766	21.78555908	0.68813566	0	-0.66646437	-8.17844557	293.46942652	-36.42906662	0.69851211	0	-0.35675260	0	-5.34126261	0	0	-0.27983637	0
0.48000000	-8.72806007	249.12278047	21.54967870	0.68903319	0	-0.66618572	-8.35707729	294.54235491	-36.68094721	0.69884742	0	-0.35652382	0	-5.33369286	0	0	-0.24122527	0.00000000
0.49000000	-8.86982890	247.80712323	21.34123891	0.68938146	0	-0.66589863	-8.33830998	295.80656714	-37.03872164	0.69897043	0	-0.35628250	0	-5.32083088	0	0	-0.19468439	0.00000000
0.50000000	-8.91703628	246.78894603	21.18583992	0.68927075	0	-0.66561329	-8.24509267	297.25309550	-37.49532988	0.69903691	0	-0.35602692	0	-5.30422302	0	0	-0.18284887	-0.00000000
